<svg width="349" height="12" viewBox="0 0 349 12" fill="none" xmlns="http://www.w3.org/2000/svg">
<mask id="mask0_248_898" style="mask-type:alpha" maskUnits="userSpaceOnUse" x="0" y="0" width="349" height="12">
<rect x="0.638428" y="0.81189" width="347.419" height="10.8287" fill="#C4C4C4"/>
</mask>
<g mask="url(#mask0_248_898)">
<path d="M52.822 -1.47835L53.6711 -1.62109L52.0188 -1.82573L52.8108 -1.97553C53.6051 -1.97416 54.6342 -1.7497 55.1941 -1.86897C55.2626 -1.98444 54.3977 -2.0215 54.177 -2.1135C53.9817 -2.2078 53.8224 -2.30148 53.7008 -2.39343C54.1333 -2.39244 54.6088 -2.3702 55.0991 -2.32802C55.7586 -2.25912 56.4055 -2.22563 56.9683 -2.23124C58.1193 -2.21263 59.2313 -2.23119 60.4826 -2.2271L60.0663 -2.50501L61.679 -2.43999C61.8499 -2.41882 62.0536 -2.45287 62.2216 -2.42668C63.6192 -2.20507 64.2106 -2.32583 64.8816 -2.42596C65.0192 -2.45187 65.1849 -2.47121 65.3743 -2.48349C67.2388 -2.4304 68.9201 -2.11978 70.5992 -1.96032C70.9152 -1.91961 71.2183 -1.86735 71.487 -1.80725C72.0711 -1.69041 72.7207 -1.59501 73.3765 -1.52979C74.0323 -1.46457 74.6734 -1.43161 75.2411 -1.43391C76.4965 -1.43649 77.9147 -1.35921 79.3587 -1.20955C79.7882 -1.16025 80.2178 -1.12773 80.6204 -1.11406C81.023 -1.10038 81.3897 -1.10585 81.6969 -1.13013L82.6732 -0.971492C83.0964 -1.03586 83.633 -1.07118 84.2504 -1.0753C84.8679 -1.07942 85.5533 -1.05226 86.2651 -0.995459C87.0237 -0.933844 87.7942 -0.892309 88.5812 -0.827165C90.207 -0.702626 91.7892 -0.626462 93.2787 -0.601038C95.497 -0.525695 97.6643 -0.467442 99.9021 -0.37351C101.302 -0.32817 102.666 -0.303233 103.986 -0.298828C105.567 -0.281094 107.277 -0.19524 109.034 -0.0454119V-0.0454119C108.951 0.0951617 108.181 0.0536321 107.664 0.0488749C105.996 0.0255104 104.288 -0.0350345 102.572 -0.0805172C101.799 -0.0982704 101.047 -0.104996 100.321 -0.100641C99.1073 -0.106469 97.8275 -0.143925 96.5039 -0.21237C94.413 -0.287683 92.3888 -0.323884 90.4521 -0.320607C90.3003 -0.315039 90.1612 -0.305173 90.0371 -0.291172C90.0112 -0.279046 90.0061 -0.263754 90.0223 -0.246766C90.0384 -0.229778 90.0753 -0.211655 90.1294 -0.194142C90.1835 -0.176629 90.2529 -0.160312 90.3311 -0.146745C90.4093 -0.133178 90.4936 -0.122816 90.5759 -0.116658C91.3451 -0.0213918 92.1713 0.0809273 92.8966 0.0953216C92.9247 0.096397 92.9546 0.0988532 92.9841 0.102515C93.0137 0.106176 93.0422 0.11095 93.0676 0.116491C94.6914 0.317609 96.0265 0.283575 97.2915 0.316296C99.3916 0.40473 101.416 0.446038 103.334 0.439595C103.624 0.440033 103.937 0.451529 104.262 0.473668C106.271 0.56341 108.15 0.573447 109.81 0.503326C110.493 0.485561 111.128 0.44568 111.863 0.445013C112.315 0.442268 112.709 0.416819 113.02 0.370188C113.332 0.323556 113.554 0.256708 113.675 0.173663C113.985 0.217385 114.299 0.256351 114.615 0.290095C114.804 0.309389 114.984 0.314514 115.121 0.304417C115.257 0.294321 115.339 0.269759 115.351 0.235698C115.407 0.140309 114.977 0.0924049 114.604 0.0515565C114.829 0.0310989 115.082 0.0190641 115.359 0.0157417C116.914 -0.00605475 118.583 0.0196711 120.328 0.092353C121.683 0.179351 122.765 0.10854 124.191 0.231226C124.362 0.252396 124.502 0.221324 124.66 0.213863C125.07 0.174574 125.581 0.165744 126.149 0.188143C126.716 0.210542 127.323 0.263496 127.917 0.342412C128.656 0.126812 130.253 0.373115 131.433 0.395251C131.796 0.504894 131.379 0.485619 131.361 0.515742C131.343 0.545865 131.361 0.515735 131.219 0.498093C130.041 0.653367 128.428 0.687225 126.605 0.594909C126.268 0.595292 125.947 0.602366 125.645 0.616062C125.187 0.635447 124.671 0.633511 124.119 0.610339C123.516 0.593321 122.962 0.601404 122.484 0.634197C122.209 0.633663 121.976 0.650091 121.808 0.681968C121.639 0.713846 121.54 0.760141 121.52 0.816548C121.703 0.860034 121.907 0.899824 122.123 0.934338C123.249 1.07061 124.372 1.12702 125.271 1.09246C126.835 1.03292 128.696 1.09103 130.36 1.0707C131.484 1.06246 132.681 1.08592 133.927 1.14063C133.927 1.14063 133.894 1.19586 133.891 1.20088C134.038 1.22479 134.193 1.24397 134.347 1.25733C134.347 1.25733 134.347 1.25733 134.362 1.23223C134.293 1.20812 134.201 1.18545 134.095 1.16682L133.724 1.12095C133.976 1.10901 134.211 1.07347 134.473 1.09519C135.026 1.13553 135.554 1.15256 136.026 1.14527C136.498 1.13798 136.905 1.10651 137.22 1.05275C137.779 0.98386 138.475 0.95253 139.262 0.960787C139.865 0.953265 140.447 0.937099 141.003 0.912371C141.003 0.912371 141.039 0.85213 141.303 0.820111C141.053 0.78062 140.793 0.748373 140.534 0.724849C139.406 0.666078 138.276 0.612326 137.169 0.572145C136.761 0.567804 136.377 0.574536 136.025 0.59221C135.051 0.612893 133.956 0.583539 132.804 0.50586C132.804 0.50586 132.576 0.477635 132.463 0.463521C132.786 0.331093 133.9 0.463669 134.35 0.373985C134.625 0.375618 135.107 0.386895 135.091 0.363285C135.053 0.331779 135.049 0.302509 135.077 0.277577C135.106 0.252645 135.168 0.232666 135.258 0.219075C135.348 0.205484 135.464 0.198614 135.597 0.198963C135.731 0.199312 135.879 0.206874 136.031 0.221096C137.299 0.298037 138.494 0.319434 139.541 0.283975C139.938 0.28466 140.383 0.307464 140.778 0.313169C141.019 0.320041 141.239 0.316219 141.426 0.301915C142.379 0.196568 143.66 0.188875 145.078 0.27999C145.764 0.312748 146.404 0.317129 146.967 0.292908C147.367 0.288572 147.536 0.363471 147.821 0.398755L149.031 0.473134L147.477 0.566331C147.809 0.779913 148.073 0.850338 148.616 0.863644C149.408 0.883738 150.178 0.892816 150.924 0.890821C151.475 0.889066 151.931 0.843069 152.677 0.924766C152.809 0.938091 152.936 0.942404 153.037 0.936981C153.912 0.864453 154.964 0.847807 156.124 0.888181C156.724 0.752365 157.747 0.884414 158.693 0.990809C158.998 0.888504 158.445 0.841541 158.115 0.779119C158.907 0.785508 159.704 0.78186 160.521 0.796799C160.766 0.79136 161.047 0.800663 161.341 0.823975C161.635 0.847286 161.934 0.883968 162.215 0.931153C162.351 0.961642 162.516 0.984588 162.675 0.995227C162.834 1.00587 162.974 1.00338 163.067 0.988295C163.491 0.943795 164.17 0.984781 164.521 0.909615C164.645 0.892327 164.823 0.889914 165.023 0.902796C165.223 0.915679 165.431 0.943023 165.611 0.979927V0.979927C165.414 0.991442 165.239 1.00957 165.089 1.03392C164.553 1.11302 164.75 1.24519 165.431 1.43734C166.477 1.42677 167.546 1.42977 168.515 1.39356C169.056 1.36105 169.718 1.37121 170.427 1.4229C171.137 1.47459 171.865 1.56576 172.531 1.68616C172.772 1.73246 173.047 1.76453 173.301 1.77599C173.554 1.78746 173.769 1.77749 173.901 1.74806C173.983 1.71401 174.009 1.67093 173.975 1.62254L173.292 1.53787C173.292 1.53787 173.319 1.49268 173.325 1.48264L174.307 1.47505C174.828 1.47479 175.37 1.4881 175.862 1.4843C176.584 1.45909 177.408 1.47314 178.284 1.5256C179.091 1.57938 179.885 1.62004 180.658 1.64721C181.406 1.67517 181.948 1.58603 182.66 1.57179C183.198 1.56106 183.79 1.57253 184.413 1.60575C185.49 1.66466 186.478 1.66477 187.287 1.60606C188.231 1.92237 188.69 1.9738 189.566 1.88833L189.978 1.86391L190.091 1.93176L190.406 1.91684C190.995 1.90355 191.584 1.89027 192.198 1.88553C193.052 1.91488 193.975 1.99386 194.875 2.11474C195.046 2.13591 195.279 2.20784 195.429 2.26415C195.579 2.32047 195.907 2.49035 196.147 2.60094C195.885 2.68167 195.595 2.75887 195.387 2.85168C195.366 2.86754 195.368 2.88644 195.393 2.90688C195.417 2.92732 195.464 2.94872 195.529 2.96936C195.594 2.99 195.676 3.00931 195.767 3.02573C195.859 3.04215 195.958 3.05523 196.056 3.06391C196.247 3.08263 196.436 3.09511 196.615 3.10083C197.495 3.1107 198.338 3.10337 199.136 3.07889C199.427 3.04436 199.825 3.04108 200.268 3.06958C200.711 3.09807 201.173 3.15671 201.581 3.23619C202.624 3.18847 203.836 3.20257 205.134 3.2775C206.506 3.23193 208.164 3.32408 209.447 3.22424C209.417 3.27444 209.549 3.36088 209.734 3.41068C210.025 3.48633 210.356 3.55643 210.712 3.61803L213.423 3.73829C213.524 3.80013 213.651 3.86273 213.802 3.92528C213.905 3.97468 214.084 4.02303 214.302 4.06007C214.52 4.0971 214.759 4.11992 214.968 4.12368C215.508 4.14201 215.96 4.10103 216.604 4.20226C215.613 4.29796 214.277 4.28525 212.833 4.16639C211.477 4.07599 210.172 4.03081 208.968 4.03253C208.57 4.03185 208.047 4.03713 207.923 4.09181C207.648 4.24636 206.929 4.22193 206.089 4.19342C205.43 4.16221 204.828 4.16571 204.332 4.20364C203.837 4.24156 203.462 4.31282 203.239 4.41156C203.182 4.50695 203.317 4.58837 203.896 4.64387L206.302 4.86645C206.657 4.83783 206.993 4.80396 207.31 4.76497C207.844 4.71318 208.504 4.69896 209.237 4.72343C209.97 4.74789 210.758 4.81038 211.538 4.90602C211.937 4.95541 212.336 5.00481 212.625 4.98134C212.879 4.95438 213.113 4.9221 213.325 4.88473C213.367 4.8597 213.385 4.83088 213.375 4.79939C213.529 4.81403 213.682 4.83307 213.831 4.85584C215.019 5.12154 215.939 5.11694 216.775 5.04802C217.001 5.02754 217.173 4.99498 217.403 4.96947C217.632 4.94396 217.713 4.91086 217.921 4.9205C219.582 5.00763 220.06 4.71658 221.46 4.72828C221.528 4.71691 221.57 4.69991 221.583 4.67885C221.595 4.65779 221.578 4.63336 221.531 4.60778C221.432 4.5847 221.318 4.56484 221.198 4.55004C221.079 4.53524 220.958 4.52598 220.848 4.52311C220.203 4.48576 219.634 4.49721 219.238 4.5555C218.957 4.57933 218.66 4.59831 218.348 4.61235L216.947 4.19087C218.305 4.2295 219.589 4.22925 220.77 4.19011C221.027 4.16813 221.464 4.206 221.826 4.2132L224.494 4.25259C225.042 4.25586 225.51 4.18978 226.275 4.3438C226.275 4.3438 226.78 4.36864 226.914 4.34761C227.049 4.32658 227.647 4.19578 228.003 4.11058C228.417 4.13487 228.989 4.20042 229.247 4.17845C229.697 4.12446 230.087 4.05526 230.409 3.97208L232.021 4.09083C232.019 4.19632 231.96 4.29555 231.845 4.38704C231.719 4.47526 231.724 4.58117 231.858 4.69609C231.991 4.81101 232.251 4.93169 232.615 5.04827L234.206 5.66569C234.466 5.70703 234.743 5.73486 234.999 5.7454C235.256 5.75594 235.479 5.74868 235.639 5.72459C236.324 5.65309 237.091 5.5972 237.775 5.5257C238.659 5.63508 238.432 5.81175 239.074 5.96672L241.153 6.22428C241.47 6.46297 241.794 6.69161 240.829 6.77152C240.637 6.78549 240.766 6.87695 240.591 6.91454C241.341 7.09366 242.166 7.14727 242.926 7.2576C243.226 7.33695 243.476 7.42094 243.666 7.50551C243.874 7.63286 244.296 7.76294 244.84 7.86768C245.385 7.97241 246.008 8.04339 246.576 8.06528C247.528 8.13233 248.503 8.23304 249.457 8.36289C249.783 8.40804 250.118 8.44094 250.44 8.45937C250.761 8.47779 251.061 8.48132 251.32 8.46971C252.244 8.44926 253.025 8.37895 253.614 8.26336C254.196 8.16526 254.981 8.11798 255.897 8.1258C257.464 8.31986 257.78 8.61228 258.728 8.86984L257.09 8.89871C257.031 8.99912 257.139 9.12572 256.468 9.12341C255.797 9.12109 256.137 9.21716 256.355 9.31418C256.432 9.36299 256.581 9.41319 256.779 9.4563C256.976 9.4994 257.209 9.53275 257.438 9.55071L258.832 9.67489C259.327 9.72215 259.805 9.74233 260.215 9.73321C260.625 9.7241 260.951 9.68605 261.156 9.62323C261.392 9.56358 261.718 9.52323 262.113 9.50465C262.617 9.45599 263.032 9.38362 263.341 9.29028L265.309 9.42627C265.393 9.33247 265.664 9.2667 266.075 9.24008C266.486 9.21346 267.013 9.22762 267.567 9.28017L268.894 9.36364C270.369 9.45471 270.692 9.42473 271.124 9.16028L269.355 8.68791C269.613 8.56348 269.861 8.45412 270.109 8.34476C269.668 8.18913 269.081 8.04194 268.405 7.91813C267.775 7.78508 267.126 7.65623 266.463 7.53206C265.743 7.40518 264.983 7.29485 264.089 7.15182C263.933 7.10555 263.706 7.02358 263.416 6.94461C263.127 6.86786 262.824 6.79263 262.51 6.71921C262.57 6.6188 262.623 6.52843 262.509 6.41187C263.059 6.44907 263.628 6.51412 264.164 6.60115C264.699 6.68819 265.185 6.79449 265.577 6.91045C265.643 6.93102 265.724 6.95033 265.814 6.96709C265.905 6.98386 266.002 6.99768 266.101 7.00761C267.068 7.07886 267.53 7.22772 268.003 7.41023C268.321 7.50352 268.731 7.58638 269.177 7.64729C270.032 7.75315 270.869 7.88912 271.686 8.00651C271.936 8.04562 272.196 8.07782 272.455 8.10177C273.309 8.17792 274.169 8.2844 274.99 8.4158C275.259 8.4492 275.516 8.49339 275.741 8.54469C275.966 8.59599 276.152 8.6529 276.283 8.71067C276.08 8.77397 275.97 8.85387 275.961 8.94555C275.925 9.00579 276.525 9.12861 276.809 9.21762C277.092 9.30664 276.536 9.2647 276.347 9.27365C275.573 9.29087 275.429 9.32696 275.893 9.52453C276.048 9.58666 276.151 9.64882 276.195 9.70715C276.239 9.76548 276.224 9.81875 276.151 9.86363C276.041 10.0494 275.706 10.2019 275.476 10.3836C275.833 10.5033 276.43 10.6311 276.495 10.7793C276.526 10.8121 276.592 10.847 276.688 10.8812C276.784 10.9155 276.908 10.9483 277.05 10.9774C277.425 11.0401 277.766 11.1151 278.047 11.1966C278.327 11.278 278.54 11.3638 278.668 11.4472C278.71 11.4817 278.811 11.5183 278.951 11.5496C279.091 11.581 279.26 11.6048 279.424 11.6163C279.619 11.6304 279.794 11.6285 279.913 11.6111C280.031 11.5936 280.084 11.562 280.06 11.5226C280.065 11.4487 280.039 11.3717 279.983 11.2921C280.015 11.2369 280.048 11.1817 279.919 11.0902C280.503 11.1236 281.116 11.1905 281.691 11.2836C282.267 11.3767 282.783 11.4926 283.184 11.6185C283.626 11.7488 284.035 11.8855 284.525 12.0379C284.424 12.2086 284.424 12.2086 285.468 12.5104L291.008 12.6576L292.143 12.8575C293.202 13.0317 293.454 13.0198 294.119 12.9297L294.566 12.845C295.506 12.9615 296.589 13.0955 297.177 12.8774C297.368 13.0196 297.492 13.0673 297.449 13.0889C297.168 13.2988 296.681 13.4768 296.005 13.616C295.833 13.6486 295.712 13.6983 295.511 13.7273C294.864 13.8912 294.714 14.1444 295.092 14.4352C295.279 14.5639 295.551 14.6956 295.9 14.8263C295.39 15.0075 294.715 15.1577 293.892 15.2728C293.194 15.3618 292.619 15.481 292.184 15.627C291.793 15.7743 291.208 15.8849 290.462 15.9527C290.083 15.9815 289.807 16.0383 289.661 16.1175C289.617 16.332 289.717 16.5615 289.959 16.8011C290.004 16.874 290.133 16.9528 290.336 17.0312C290.539 17.1096 290.81 17.1856 291.128 17.2531C291.128 17.2531 291.281 17.3044 291.355 17.3351C291.416 17.5947 291.187 17.8236 290.682 18.0062C290.599 18.058 290.43 18.0955 290.192 18.1145C289.955 18.1335 289.658 18.1333 289.334 18.1141C288.649 18.0831 288.009 18.0793 287.346 18.0619C286.632 18.0373 286.004 18.0567 285.526 18.118C285.048 18.1793 284.74 18.2802 284.632 18.4102C284.625 18.447 284.604 18.4822 284.57 18.5156C284.55 18.5329 284.539 18.5513 284.537 18.5709L286.058 18.9964L284.337 19.1658C284.236 19.3365 285.062 19.4389 285.476 19.5656L285.22 19.6363C284.891 19.6763 284.447 19.5998 284.045 19.5554L283.646 19.506L283.599 19.5863C283.35 19.6957 282.445 19.5728 282.092 19.6529C281.738 19.7331 281.99 19.8236 282.52 19.9108C282.888 19.9755 283.283 20.0272 283.676 20.0618C284.068 20.0964 284.448 20.1131 284.786 20.1107C284.989 20.1021 285.156 20.0825 285.279 20.0531C285.994 19.9281 286.783 19.8205 287.641 19.7313C288.299 19.6512 289.123 19.6171 290.055 19.6315C290.328 19.6255 290.658 19.6444 290.986 19.6851C291.315 19.7257 291.62 19.7855 291.85 19.8538V19.8538L292.332 19.865C292.332 19.865 292.596 19.9355 292.559 19.947C292.375 20.1557 292.589 20.4107 293.168 20.6745V20.6745L292.664 20.6983C291.945 20.6739 292.401 20.8328 292.293 20.9111C291.782 20.8963 291.118 20.8302 290.876 20.9295L290.513 20.9223L290.656 20.94L290.828 20.9074L291.504 21.0559C291.184 21.0808 290.952 21.1113 290.668 21.1248C290.512 21.1365 290.387 21.1571 290.302 21.1854C290.217 21.2138 290.173 21.2493 290.173 21.2898C290.174 21.3521 290.089 21.4045 289.928 21.442C289.767 21.4796 289.533 21.501 289.251 21.5043C288.914 21.5056 288.721 21.5733 288.523 21.5973L289.382 22.0055C289.382 22.0055 288.955 21.9526 289.187 22.0245L289.217 21.9743L289.737 22.0765C290.112 22.1661 290.375 22.1878 290.596 22.1236C290.818 22.0594 290.767 22.1448 290.873 22.1202C290.835 22.1855 290.594 22.2311 290.387 22.2701C290.148 22.3008 289.879 22.3234 289.583 22.3376C290.116 22.6245 290.141 22.6331 289.362 22.7091C288.584 22.785 288.852 22.8992 288.2 22.9154C287.549 22.9317 288.29 23.1259 288.726 23.1638C289.049 23.1887 289.379 23.2274 289.693 23.2774C290.006 23.3274 290.296 23.3874 290.542 23.4533L290.411 23.6743C290.219 23.656 290.027 23.6322 289.841 23.6037C289.21 23.4824 288.635 23.3681 288.074 23.4387L288.341 23.6065L286.381 23.5092C286.431 23.635 286.73 23.7783 287.214 23.9088V23.9088C287.141 23.9805 287.097 24.056 287.08 24.1347C287.048 24.19 286.854 24.1552 286.728 24.1612C286.279 24.1704 285.911 24.2078 285.655 24.2702C285.4 24.3325 285.265 24.4178 285.263 24.5186C285.212 24.6039 285.902 24.781 286.334 24.7752C287.411 24.7922 288.577 24.8579 289.766 24.9686C290.492 24.983 290.594 24.7586 291.788 24.9118C291.811 25.0154 291.659 25.0993 291.352 25.1508C291.046 25.2023 290.603 25.2186 290.09 25.1972C290.381 25.4274 291.997 25.4874 292.069 25.7279C291.666 25.711 291.236 25.671 290.82 25.6119C290.405 25.5529 290.018 25.4769 289.699 25.3914C289.63 25.3703 289.544 25.3509 289.448 25.3349C289.352 25.3189 289.249 25.3069 289.15 25.3C289.05 25.293 288.957 25.2913 288.878 25.2951C288.8 25.2989 288.739 25.308 288.701 25.3216C288.925 25.4086 289.171 25.5092 289.451 25.6032C289.732 25.6972 289.8 25.7379 290.002 25.7576C291.512 25.9446 292.23 26.2814 293.536 26.5025C293.878 26.5448 293.92 26.6794 293.624 26.6642C293.341 26.649 293.086 26.651 292.885 26.67C292.685 26.6889 292.548 26.7242 292.49 26.7717C292.271 26.8271 291.998 26.8712 291.678 26.9029C293.018 27.2485 294.615 27.5539 296.32 27.7904C296.643 27.8371 296.98 27.8656 297.281 27.8717C298.233 27.872 299.243 27.8994 300.29 27.9534C300.662 27.9681 301.005 27.9667 301.302 27.9493C302.274 27.9081 303.047 27.9983 303.752 28.2528L304.92 28.6561C304.881 28.7213 304.685 28.7941 304.534 28.8939L305.446 29.1093L312.406 28.6133L313.804 29.0935L315.807 29.0668C315.961 29.0807 316.115 29.0998 316.263 29.1233C316.668 29.2651 316.985 29.4013 317.425 29.5366C317.864 29.6719 318.65 29.6883 319.197 29.8478C319.745 30.0072 320.294 30.0105 320.971 30.1052C321.035 30.2286 320.969 30.3397 320.778 30.4315C320.715 30.537 320.371 30.6021 320.311 30.7025C320.318 30.804 320.19 30.8901 319.939 30.9532C319.688 31.0162 319.322 31.0541 318.874 31.0634C317.62 31.2795 316.108 31.4333 314.384 31.5203C314.232 31.5267 314.106 31.5413 314.015 31.5633C313.923 31.5852 313.866 31.6141 313.849 31.6482C313.852 31.7467 313.737 31.8318 313.513 31.8973C313.289 31.9628 312.961 32.007 312.555 32.0267C312.446 32.0307 312.364 32.043 312.319 32.0623C312.165 32.0747 312.053 32.0984 311.993 32.1312C311.934 32.164 311.929 32.2047 311.979 32.2494C312.029 32.2941 312.133 32.3413 312.281 32.3864C312.428 32.4315 312.614 32.473 312.82 32.5069C313.12 32.5615 313.426 32.6138 313.737 32.6635C313.719 32.6937 313.41 32.6985 313.455 32.7257C313.577 32.8123 313.605 32.8935 313.538 32.9627C313.47 33.032 313.309 33.0874 313.066 33.1247L314.729 33.8265C315.739 33.9238 316.729 34.0886 317.513 34.2898C317.514 34.3228 317.469 34.3504 317.382 34.3699C317.295 34.3895 317.17 34.4002 317.019 34.4011C316.613 34.4155 316.229 34.4434 315.792 34.4593C315.524 34.4711 315.302 34.4972 315.137 34.536C314.972 34.5748 314.868 34.6256 314.832 34.6853L315.809 34.9464C315.496 35.01 315.264 35.0406 315.057 35.0796C315.174 35.1617 315.375 35.2466 315.645 35.3277C315.916 35.4088 316.247 35.484 316.615 35.5474C316.713 35.5605 316.813 35.57 316.91 35.5755C317.007 35.581 317.097 35.5823 317.177 35.5793C317.933 35.4897 318.818 35.6478 319.677 35.7974C320.537 35.9469 321.003 36.037 321.637 36.1533L322.851 36.169C323.159 36.224 323.433 36.2888 323.652 36.358C323.871 36.4273 324.029 36.4991 324.113 36.5678C324.048 36.6782 323.472 36.6177 323.129 36.6291C322.315 36.6978 321.245 36.6832 320.096 36.5875C319.811 36.5522 319.519 36.5807 319.242 36.5841C318.644 36.5978 318.069 36.6202 317.52 36.6511C317.159 36.6799 316.821 36.7154 316.509 36.7576C316.426 36.8982 317.737 37.0068 316.993 37.0762C317.249 37.108 317.345 37.1522 317.477 37.1362C318.322 37.2275 319.154 37.2726 319.877 37.2664C321.265 37.247 322.841 37.311 324.475 37.4533C326.24 37.6007 327.933 37.6625 329.414 37.6338C329.978 37.6321 330.609 37.6623 331.258 37.7221C332.024 37.8048 332.785 37.8568 333.491 37.8747C333.725 37.8754 333.986 37.8895 334.252 37.9158C334.518 37.9422 334.782 37.9802 335.022 38.0266V38.0266C335.001 38.0617 334.772 38.0873 334.823 38.1044C335.554 38.3673 335.85 38.6412 336.975 38.9098C337.745 39.0051 338.628 39.1145 339.131 38.9882C339.634 38.8618 339.453 38.7533 338.453 38.4299C338.67 38.4253 338.931 38.4404 339.192 38.4726C339.452 38.5049 339.695 38.5522 339.877 38.6063L340.743 38.8483L341.523 39.0797C341.454 39.1951 341.401 39.2855 341.344 39.3809C341.255 39.4822 341.353 39.6055 341.625 39.7335C341.788 39.8034 341.931 39.8734 342.051 39.9427C342.539 40.2198 342.68 40.4818 342.459 40.6991C342.035 41.0117 341.445 41.2993 340.696 41.5586C339.904 41.8108 339.471 42.129 338.819 42.4039C338.486 42.5291 338.082 42.6413 337.611 42.7393C336.717 42.9573 335.738 43.1648 334.841 43.3878C333.945 43.6109 332.932 43.7711 331.937 43.955C330.454 44.1732 328.851 44.3616 327.138 44.5192C326.077 44.6574 324.988 44.7919 324.007 44.9507C322.849 45.1296 321.488 45.2581 319.958 45.333C318.607 45.4226 317.4 45.5552 316.36 45.7281C316.251 45.7468 316.165 45.7706 316.104 45.7988C315.917 45.9751 315.392 46.0994 314.61 46.1526C314.658 46.2042 314.719 46.2567 314.792 46.3099C314.901 46.3732 314.924 46.4325 314.857 46.48C314.791 46.5275 314.639 46.5611 314.42 46.5764C313.795 46.6201 313.275 46.6942 312.884 46.7956C312.74 46.8211 312.651 46.8581 312.624 46.9036C312.597 46.9491 312.633 47.0016 312.729 47.0567C312.814 47.1134 312.82 47.1656 312.747 47.2065C312.674 47.2474 312.524 47.2751 312.318 47.286C311.788 47.3397 311.221 47.3829 310.621 47.4153C309.342 47.4868 307.855 47.4859 306.249 47.4128C306.078 47.3916 305.906 47.4242 305.707 47.3995C304.571 47.3175 303.516 47.3048 302.67 47.3629C301.678 47.3856 300.641 47.3811 299.595 47.3917C298.084 47.3846 296.69 47.4277 295.452 47.5198C294.037 47.4308 293.242 47.5856 292.048 47.5886C290.945 47.6045 289.9 47.6426 288.922 47.7026C287.346 47.7822 285.776 47.8518 284.222 47.945C282.765 47.9895 281.423 48.0744 280.219 48.1983C279.758 48.2543 278.923 48.1671 278.609 48.2844C278.294 48.4018 277.66 48.388 277.148 48.4269L275.531 48.5231C275.253 48.5459 274.948 48.5605 274.619 48.5663C273.116 48.5742 272.075 48.7309 270.68 48.7629L270.538 48.7452C268.061 48.9782 265.226 49.1061 262.117 49.1251C260.301 49.1965 258.316 49.1931 256.389 49.2455C255.929 49.3502 254.843 49.2211 254.267 49.3168C253.69 49.4124 252.749 49.3497 252.006 49.3655C251.262 49.3812 250.536 49.4205 249.742 49.4192C249.052 49.4196 248.469 49.4623 248.047 49.5434C247.084 49.6775 245.909 49.7563 244.576 49.7764C242.812 49.8112 241.145 49.8903 239.351 49.8729C239.377 49.9706 239.266 50.0537 239.032 50.1137C238.798 50.1737 238.447 50.2084 238.017 50.2143C236.099 50.2516 234.36 50.3487 232.416 50.3774L231.896 50.3777L226.083 50.4338C224.517 50.4446 223.008 50.4625 221.411 50.4748C220.813 50.4007 220.798 50.5283 220.384 50.504C220.269 50.4411 220.132 50.4135 219.929 50.4475L219.884 50.5228L213.25 50.6227C210.653 50.6958 207.921 50.7177 205.077 50.6883C204.403 50.6957 203.773 50.7206 203.198 50.7627C202.666 50.7781 202.11 50.7849 201.535 50.7831C200.757 50.7641 199.997 50.7545 199.258 50.7544C197.315 50.7831 195.275 50.7676 193.147 50.7466C191.019 50.7255 189.407 50.7629 187.513 50.7601C186.23 50.7575 184.953 50.7448 183.625 50.7151C182.991 50.7012 182.21 50.626 181.553 50.5986C180.897 50.5712 180.683 50.5716 180.596 50.6148C180.31 50.7356 179.592 50.6575 179.018 50.6457C177.898 50.6256 177.739 50.5843 177.435 50.2718L178.809 50.1725C179.146 50.1405 179.569 50.1348 180.039 50.1561C180.508 50.1775 181.008 50.2251 181.489 50.2943C181.679 50.3239 181.877 50.3474 182.072 50.3632C182.267 50.3791 182.456 50.3871 182.627 50.3867C184.013 50.3697 185.38 50.3342 186.712 50.3052L186.906 50.2862L186.919 50.0075C186.743 49.9801 186.56 49.9575 186.378 49.9405L179.696 49.7596C178.163 49.7152 176.571 49.6151 175.066 49.5742C173.561 49.5333 172.75 49.5083 171.583 49.4661C171.09 49.4421 170.588 49.4105 170.079 49.3715C170.109 49.3447 170.126 49.3162 170.13 49.2862C170.157 49.241 170.192 49.1808 169.976 49.1324C169.741 49.0642 169.426 49.006 169.094 48.9693C168.783 48.9451 168.482 48.9314 168.201 48.9287C166.846 48.9054 165.298 48.7582 163.888 48.5185L163.396 48.6785C161.278 48.5886 159.128 48.5002 156.916 48.4148C156.473 48.3916 156.008 48.3469 155.556 48.2842C155.072 48.2242 154.626 48.0989 154.117 48.0304C153.613 47.9811 153.112 47.9426 152.625 47.9157C152.757 47.8745 152.931 47.8416 153.142 47.818C153.349 47.8098 153.5 47.784 153.573 47.7446C153.645 47.7052 153.636 47.6541 153.547 47.5988C153.389 47.5038 153.32 47.4144 153.663 47.403C153.98 47.3813 154.207 47.3344 154.317 47.2678C154.426 47.2012 154.415 47.1177 154.283 47.0271C154.225 46.9741 154.185 46.9223 154.161 46.8719V46.8719L154.019 46.8542C153.549 46.6667 152.61 46.599 151.937 46.4455C151.619 46.401 151.29 46.3754 151.001 46.3728C150.256 46.3398 149.531 46.3254 148.761 46.2839C148.393 46.2647 148.008 46.2299 147.629 46.1814C147.087 46.1143 147.03 46.1073 146.716 45.8636C147.204 45.8678 147.591 45.8314 147.811 45.7605C148.032 45.6896 148.072 45.5886 147.925 45.4744C147.523 45.2252 147.097 44.9623 145.276 44.7852C145.87 44.7765 146.442 44.7592 146.988 44.7333C147.148 44.7277 147.267 44.7094 147.33 44.6808C147.393 44.6522 147.397 44.6147 147.342 44.5733C147.287 44.5318 147.175 44.4885 147.021 44.449C146.867 44.4095 146.678 44.3758 146.48 44.3524C145.519 44.2114 144.516 44.117 143.584 44.0799C142.799 44.0635 142.09 44.0727 141.173 44.0723L140.09 43.9382C140.108 43.9081 139.949 43.8668 139.989 43.8503C140.264 43.6957 140.568 43.5447 140.88 43.3786C140.381 43.2889 139.949 43.1807 139.633 43.0662C139.316 42.9518 139.129 42.8357 139.093 42.7315C139.066 42.7 139.073 42.6713 139.113 42.6475C139.154 42.6236 139.227 42.6052 139.327 42.5935C139.612 42.5733 139.832 42.5348 139.97 42.4809C140.108 42.4269 140.161 42.3591 140.123 42.2825L139.281 42.0004C136.747 41.7991 134.257 41.6553 131.86 41.5716L129.696 41.5083C129.435 41.4329 129.515 41.3998 129.761 41.3979C130.007 41.396 130.698 41.4169 131.18 41.4282C131.597 41.443 131.967 41.4333 132.255 41.4C132.543 41.3667 132.738 41.3109 132.822 41.2381L132.095 40.9164C132.131 40.8561 132.182 40.7708 132.576 40.7765C132.845 40.7695 133.044 40.7392 133.139 40.6904C133.235 40.6416 133.222 40.5772 133.102 40.5076C133.084 40.4572 133.111 40.4113 133.183 40.372C133.765 40.3688 134.345 40.3705 134.874 40.3552C135.121 40.3501 135.329 40.3315 135.484 40.3005C135.64 40.2696 135.739 40.227 135.776 40.1758C135.795 40.1259 135.748 40.0689 135.64 40.0096C135.532 39.9504 135.365 39.8904 135.152 39.8346C134.323 39.7655 133.565 39.7646 133.044 39.8321C132.858 39.885 132.559 39.9139 132.188 39.915C131.816 39.916 131.388 39.8893 130.961 39.8382C130.472 39.7792 129.983 39.7534 129.584 39.7651C129.185 39.7769 128.9 39.8256 128.782 39.9025C128.28 39.8726 127.835 39.8498 127.396 39.8169C126.878 39.7755 126.388 39.7633 125.979 39.7816C125.326 39.7946 124.622 39.787 123.883 39.7591C121.753 39.6893 119.62 39.6245 117.558 39.5955C117.012 39.5872 116.54 39.6096 116.001 39.5912C115.461 39.5729 115.034 39.6224 114.36 39.5227C114.231 39.5072 114.102 39.4972 113.982 39.4936C113.862 39.49 113.755 39.4928 113.669 39.5018C112.484 39.5807 111.094 39.5918 109.582 39.5346C107.511 39.5206 105.363 39.4809 103.289 39.4719C102.681 39.4796 102.106 39.5004 101.571 39.5339C101.163 39.5542 100.736 39.5679 100.293 39.575C99.9524 39.5814 99.627 39.5626 99.6844 39.6721C99.7419 39.7816 99.2321 39.7131 98.9383 39.6929C97.9288 39.6398 96.8972 39.5679 95.8548 39.478C94.8276 39.3804 93.8212 39.3236 92.8958 39.311C92.2274 39.3036 91.5382 39.3314 90.6789 39.1819C90.7116 39.1267 90.7443 39.0714 90.9313 39.0138C90.2306 38.8551 89.431 38.7186 88.5987 38.6155C87.7664 38.5124 86.9255 38.4458 86.1453 38.421L85.0695 38.1207C84.8046 38.0854 84.5342 38.0598 84.2747 38.0452C84.0152 38.0307 83.7721 38.0276 83.56 38.0361C83.3962 38.0405 83.1965 38.0293 82.9976 38.0047C82.7988 37.9801 82.6141 37.9436 82.4774 37.9021C82.2731 37.8492 82.0237 37.8036 81.7602 37.7709C81.4966 37.7383 81.2308 37.7201 80.9961 37.7186C80.2569 37.6859 79.4679 37.6105 78.7098 37.5001C78.513 37.4353 78.3898 37.3685 78.3551 37.3077C78.3205 37.2469 78.3761 37.1949 78.515 37.158C78.739 37.0929 78.8647 37.01 78.8846 36.9143C78.9046 36.8186 78.8183 36.7121 78.631 36.6011C78.5351 36.5331 78.503 36.4686 78.5368 36.4116C78.5705 36.3547 78.6694 36.3064 78.8274 36.2698C79.4171 36.1003 79.2593 36.0053 78.2945 35.7242C78.1378 35.6773 77.9488 35.6335 77.7397 35.5955C77.5306 35.5576 77.3058 35.5263 77.0797 35.5037C76.5491 35.4578 76.0257 35.4237 75.5192 35.402C75.2343 35.3667 74.9422 35.3952 74.6139 35.3815C72.9727 35.3129 72.7324 35.2024 72.2009 34.9641L71.8135 34.7921C71.0951 34.6529 70.3093 34.5372 69.5129 34.4535C68.7165 34.3698 67.9292 34.3201 67.2078 34.3079C66.9211 34.307 66.5914 34.2832 66.2694 34.2402C65.2213 34.1087 64.16 34.0176 63.1556 33.9731C62.5297 33.9481 61.8551 33.8833 61.2127 33.7865C60.5703 33.6897 59.9874 33.5651 59.5341 33.4276C59.127 33.3037 58.5943 33.1925 58.0102 33.1095C57.3265 33.0248 57.2631 32.9254 57.645 32.8487C58.0268 32.7721 58.6662 32.6734 59.2339 32.5928C59.4314 32.5655 59.5537 32.5209 59.5874 32.4642C59.621 32.4074 59.5645 32.3407 59.4243 32.2715C59.3342 32.1531 59.3186 32.0407 59.3778 31.937C59.4095 31.894 59.3876 31.8446 59.3138 31.7922C59.2399 31.7399 59.1157 31.6858 58.9496 31.6335C58.7835 31.5813 58.5794 31.5322 58.3509 31.4894C58.1224 31.4467 57.8749 31.4114 57.6251 31.3858C56.571 31.2553 55.5454 31.1283 54.4705 31.0329C54.0201 30.9879 53.5701 30.9322 53.1316 30.867C52.234 30.7059 51.2737 30.5724 50.3065 30.474C49.8475 30.4301 49.3987 30.3532 49.0573 30.26C47.9805 30.0091 46.9883 29.7452 46.0986 29.4732C45.8842 29.3889 45.6036 29.3066 45.2745 29.2315C44.9454 29.1564 44.5748 29.0902 44.186 29.037C43.8727 28.9982 43.6176 28.9127 43.376 28.8558C43.2005 28.7241 43.1818 28.6023 43.3216 28.5018C43.4614 28.4013 43.7551 28.3254 44.1753 28.2812C44.5737 28.2281 44.9465 28.1665 45.2909 28.1014C45.7061 28.0487 46.1996 28.0171 46.7532 28.0077C47.4088 27.9794 47.8936 27.8986 48.1444 27.7758C46.3496 27.5535 44.6428 27.2343 43.0696 27.309L41.8743 27.107C41.9219 27.0267 41.9636 26.9564 42.0023 26.8911C42.2865 26.7723 42.3753 26.6225 42.2611 26.4544C42.1669 26.373 42.1755 26.299 42.2857 26.2398C42.396 26.1806 42.6041 26.1383 42.8891 26.1172C44.5771 25.9005 46.5291 25.7543 48.112 25.5084C48.6084 25.4623 49.1894 25.4413 49.8306 25.4464C50.451 25.4317 50.425 25.3207 49.7111 25.1837C49.3104 25.1122 48.902 25.0436 48.4874 24.9783C46.659 24.9674 45.9142 25.2955 43.8278 25.2041L42.8607 24.7718C42.5992 24.7651 42.3454 24.7625 42.1009 24.7639L38.6025 24.9396C38.3111 24.9484 38.0843 24.9784 37.9478 25.0263C37.8113 25.0742 37.7706 25.138 37.8304 25.2104C37.8541 25.2991 37.8059 25.3804 37.6876 25.4514C37.6113 25.5011 37.6601 25.5672 37.8233 25.6353C38.1911 25.7886 37.7192 25.811 37.4211 25.8495C37.3449 25.8533 37.2571 25.8529 37.1627 25.8483C37.0682 25.8438 36.9691 25.8352 36.8711 25.8231C36.773 25.8109 36.678 25.7955 36.5915 25.7776C36.5049 25.7597 36.4287 25.7398 36.367 25.719C35.8419 25.5731 35.3826 25.4192 34.8664 25.2583C35.2329 25.1043 34.8017 24.8515 35.3736 24.7121C35.4375 24.6843 35.4631 24.6504 35.4488 24.6125C35.4344 24.5745 35.3804 24.5334 35.2902 24.4916C35.0573 24.3837 34.9464 24.2786 34.9686 24.1867C34.9909 24.0948 35.1454 24.0195 35.4168 23.9684L35.4495 23.9132C34.7339 23.7275 34.9235 23.5624 34.6424 23.3659L33.954 23.2376C32.2413 22.9284 32.2383 22.9335 30.7637 22.9448C30.4665 22.8272 30.8441 22.8093 31.1273 22.7959L33.499 22.6639C35.0496 22.5757 36.6454 22.5147 38.3776 22.4813C40.1098 22.4479 42.041 22.3368 43.8315 22.2568C43.922 22.2506 43.9913 22.2384 44.0334 22.2211C44.0756 22.2038 44.0894 22.182 44.0738 22.1575C44.0026 22.131 43.9095 22.1054 43.8012 22.0827C43.693 22.06 43.5723 22.0406 43.4483 22.0261C42.8785 21.9556 42.2939 21.9101 41.6867 21.8511L40.5548 21.7486L40.2066 21.6139C39.98 21.5319 39.8251 21.4319 39.5236 21.373C39.2752 21.3291 39.0055 21.2957 38.7426 21.2764C38.4798 21.2571 38.2334 21.2526 38.0291 21.2633C37.4628 21.2902 36.9504 21.3291 36.4096 21.3645C35.8687 21.3999 35.5707 21.4385 35.1017 21.4558C34.1488 21.4637 33.228 21.4846 32.3431 21.5183C31.5978 21.5982 30.9084 21.6928 30.2793 21.8016C29.8868 21.8446 29.5198 21.8962 28.8497 21.8401C28.5318 21.7893 28.2576 21.7226 28.0757 21.6517C27.8938 21.5808 27.8159 21.5104 27.856 21.453C27.8919 21.408 27.9937 21.3724 28.1518 21.3495C28.3098 21.3267 28.5188 21.3173 28.759 21.3223C29.4317 21.3141 30.0537 21.2862 30.6125 21.2393C31.3903 21.1544 32.3372 21.1178 33.3979 21.1316C33.7576 21.1439 33.9987 21.0983 34.3133 21.0834C34.628 21.0684 34.8945 21.0314 35.2453 21.0587C36.3351 21.129 36.8576 21.0212 37.5107 20.9512C37.7318 20.9202 37.8688 20.87 37.9066 20.8063C37.9444 20.7425 37.8815 20.6676 37.725 20.5898C37.4235 20.4348 37.0548 20.279 36.6245 20.1247C36.4031 20.0489 36.1194 19.9769 35.7956 19.9144C35.4719 19.8519 35.117 19.8005 34.7587 19.7643C34.5442 19.6694 34.4298 19.5761 34.4258 19.4928C34.4218 19.4095 34.5283 19.3388 34.7357 19.2872C35.2642 19.1695 35.7327 19.0497 36.9169 19.1155C37.4736 19.1406 37.9976 19.1454 38.4679 19.1297C39.5112 19.1083 40.7146 19.1553 41.9647 19.2664C42.2882 19.2949 42.6061 19.3143 42.9091 19.3241C45.0704 19.3924 47.1296 19.4265 49.1947 19.4506C50.2887 19.4621 51.3917 19.4586 52.5338 19.4923C55.2121 19.5653 57.6501 19.5278 60.2353 19.5515C61.5892 19.5638 62.8011 19.5146 63.8073 19.4065C64.0033 19.3703 64.1716 19.3281 64.3103 19.2802C63.6435 19.1547 62.911 19.0553 62.1831 18.9916C61.4552 18.9279 60.7562 18.9019 60.1531 18.9162C59.8216 18.9514 59.393 18.9578 58.9153 18.9348C58.4376 18.9118 57.9295 18.8603 57.4476 18.7859V18.7859L58.8486 18.7439C59.7777 18.7242 60.7292 18.7181 61.6328 18.6899C63.0682 18.6414 64.3986 18.5636 65.885 18.5322C67.0851 18.5033 68.1591 18.4293 69.0731 18.3127C69.7334 18.2276 70.4876 18.1673 71.3202 18.1329C71.9121 18.1146 71.9121 18.1146 72.2905 17.9405C71.9903 17.8279 71.6021 17.8122 71.2364 17.81C69.0441 17.7391 66.9579 17.7267 65.0201 17.773C64.0424 17.7771 63.175 17.8248 62.4596 17.9139C62.2844 17.9515 61.8363 17.9337 61.4765 17.9215C60.3489 17.9029 59.2711 17.9083 58.2562 17.9376C56.8529 17.9865 55.2901 17.9749 53.6283 17.9033C53.3132 17.8158 53.6759 17.823 53.6938 17.7929C54.9808 17.7367 56.2424 17.672 57.5549 17.6244C57.9137 17.6075 58.2973 17.5991 58.7012 17.5993C60.2094 17.6289 61.4661 17.5471 62.2954 17.3655C62.337 17.2952 62.8825 17.3035 63.1236 17.2579C63.2422 17.2184 63.3212 17.172 63.3583 17.1199C63.007 16.9902 62.6099 16.9895 62.3042 16.9893C61.4171 17.0038 60.5637 17.0313 59.748 17.0715C58.9898 17.1099 58.1505 17.1201 57.2529 17.102C56.5905 17.0846 56.0241 17.1115 55.3557 17.1042C54.9932 17.0887 54.6179 17.0639 54.2375 17.0303C54.661 16.9399 55.2367 16.8843 55.9242 16.8674C56.4455 16.8134 57.0973 16.7971 57.1806 16.6566C56.9344 16.556 56.6601 16.5544 56.4399 16.5648C55.9814 16.5644 55.5386 16.5708 55.1137 16.5838C54.2128 16.6124 53.2374 16.6128 52.2079 16.585C51.6659 16.5746 51.1515 16.5777 50.6734 16.5943C49.59 16.6164 48.5517 16.6656 47.5598 16.6883C45.5278 16.7115 43.6744 16.7945 41.722 16.8383C41.2874 16.8491 40.8979 16.8871 40.3251 16.8216C39.7524 16.756 39.7269 16.7475 39.6593 16.7068C39.499 16.6388 39.4505 16.573 39.5237 16.5229C39.6373 16.4761 39.8586 16.45 40.1482 16.4494C41.8936 16.3749 43.5491 16.2703 45.1042 16.1363C45.7887 16.1094 46.3883 16.0547 46.8823 15.9739C47.2741 15.9182 47.7389 15.8814 48.262 15.8645C49.0229 15.8243 49.8161 15.7948 50.6384 15.7762C51.0211 15.7662 51.3464 15.7364 51.5953 15.6886C51.8443 15.6408 52.0117 15.5758 52.0878 15.4977L51.0797 15.2381C50.9213 15.226 50.7642 15.2155 50.609 15.2067L42.2417 15.3937L41.413 15.3989C40.5048 15.3834 40.2828 15.3451 39.4213 15.0444C41.3874 14.9737 42.933 14.7675 43.904 14.4464C43.6707 14.4118 43.4314 14.3822 43.1918 14.3582C41.6206 14.2822 40.1353 14.262 38.7932 14.2984C37.9959 14.302 37.1762 14.2921 36.3534 14.2872C36.5941 14.1392 37.5159 14.1833 38.1167 14.1499C39.5522 14.0977 40.8216 13.9898 41.8843 13.8298C42.2506 13.7674 42.709 13.7274 43.2384 13.7119C43.7682 13.7065 44.2108 13.6687 44.5276 13.6018C44.8444 13.5349 45.0258 13.4409 45.056 13.328C45.1059 13.2258 45.2135 13.1308 45.377 13.0444C45.0877 12.9219 44.6282 12.8046 44.0848 12.7145C43.5414 12.6243 42.9515 12.5676 42.4257 12.555C41.3033 12.5045 40.1392 12.4219 38.9629 12.3093C38.377 12.2525 37.8024 12.2199 37.2766 12.2136C36.8128 12.2088 36.2857 12.1678 35.7757 12.0968C35.2656 12.0258 34.8006 11.9289 34.4515 11.8206C33.9804 11.6868 33.5407 11.5515 33.101 11.4162C32.6613 11.2809 32.1511 11.11 31.6379 10.944C31.1853 10.9181 30.7447 10.9014 30.3219 10.8942C29.9929 10.9003 29.6091 10.8822 29.2157 10.8421C28.8222 10.8019 28.4356 10.7414 28.1014 10.6677V10.6677C28.2974 10.595 28.519 10.5308 28.7524 10.4465C28.432 10.3353 28.1997 10.2218 28.0697 10.113C27.9396 10.0043 27.9145 9.9025 27.9959 9.81393C28.0435 9.7336 27.6952 9.59885 27.5749 9.49233C27.4199 9.40051 27.3908 9.31481 27.4914 9.24648C27.5919 9.17815 27.8174 9.13038 28.1382 9.10943C28.5362 9.07076 28.86 9.01253 29.0966 8.93712C29.1748 8.91754 29.2146 8.89073 29.2124 8.85914C29.2102 8.82755 29.1659 8.79219 29.0838 8.75628C29.0017 8.72038 28.8842 8.68508 28.7422 8.65361C28.6001 8.62215 28.4381 8.59552 28.2708 8.57617C27.7583 8.52131 27.2494 8.48574 26.7732 8.47153C25.9529 8.44537 25.1675 8.42894 24.4172 8.42224C23.5874 8.41215 22.6642 8.34987 21.7414 8.24173C20.9153 8.1394 20.1746 8.04766 19.7706 7.85213C19.3666 7.65659 18.7207 7.66282 18.2241 7.52048C18.5031 7.39216 18.9989 7.30301 19.6616 7.26201C20.0953 7.24738 20.4573 7.20897 20.7244 7.14925C20.9915 7.08953 21.1578 7.00981 21.2127 6.91521L19.7049 6.51829C18.5007 6.33143 17.8344 6.47525 16.5333 6.40033L17.874 6.25381C17.9009 6.23933 17.911 6.22232 17.9037 6.2036C17.7735 5.90726 17.5665 5.84388 16.196 5.67954L15.4269 5.58428L14.2095 5.47123C14.0145 5.41049 13.8797 5.34716 13.8184 5.28756C13.7571 5.22795 13.7716 5.17417 13.8604 5.13159C14.0387 5.05998 14.093 4.96848 14.0181 4.8655C13.9 4.79729 13.8903 4.73441 13.9905 4.68776C14.0908 4.64111 14.2947 4.61365 14.567 4.61015C14.7842 4.60472 14.8004 4.52588 14.9186 4.48124C15.036 4.41972 15.237 4.3725 15.5079 4.34282C15.7788 4.31313 16.1131 4.30166 16.4883 4.30921C17.5944 4.31537 18.6335 4.29227 19.5871 4.24033L19.4161 4.21916C20.4101 4.26476 21.3393 4.27029 22.1586 4.23548C22.9796 4.19167 24.0333 4.21977 24.9054 4.19305C25.6153 4.19918 26.1558 4.13854 26.4122 4.02401C26.6605 3.91464 27.5628 3.94017 28.2537 3.96107C28.663 3.97459 29.0586 3.98033 29.4362 3.97819C29.9431 3.95344 30.5768 3.97678 31.2318 4.04431C31.4283 4.06506 31.6219 4.07605 31.7939 4.0762C33.459 4.10459 35.121 4.13799 36.7635 4.1528C37.1427 4.14427 37.5872 4.16381 38.0451 4.20913C38.2375 4.2288 38.4248 4.23696 38.5817 4.23248C41.1771 4.18748 44.1058 4.30231 46.6501 4.2402C46.9585 4.22554 47.2999 4.22249 47.6647 4.23113C48.4843 4.26762 49.1961 4.24414 49.692 4.16427C49.9595 4.12178 50.3025 4.09837 50.699 4.09553C51.0956 4.09269 51.537 4.11047 51.9952 4.14775C52.7577 4.19711 53.4623 4.20246 54.0348 4.16324C55.1511 4.12701 56.3251 4.11211 57.5474 4.11866C57.9219 4.125 58.2511 4.11092 58.5095 4.07751C58.768 4.0441 58.9486 3.99226 59.0376 3.926C58.7374 3.81337 58.4092 3.79967 58.0975 3.80957C56.8895 3.7839 55.6845 3.75322 54.4991 3.74112C53.438 3.70658 52.42 3.69601 51.4598 3.7096C50.983 3.72491 50.3882 3.68998 49.8049 3.61242C49.0902 3.51418 48.354 3.46538 47.7452 3.47588C47.2939 3.47848 46.8175 3.47002 46.323 3.45062C46.0064 3.42721 45.682 3.38703 45.3829 3.33418C45.2642 3.31123 45.135 3.29193 45.0036 3.27752C44.8722 3.26311 44.7416 3.25392 44.6198 3.25051C44.4981 3.2471 44.388 3.24954 44.2967 3.25771C44.2054 3.26588 44.1348 3.27958 44.0895 3.29794C43.6316 3.4514 42.6077 3.37308 41.7309 3.35611C40.417 3.09638 39.4392 3.25011 38.2112 3.10341C38.1141 3.09368 38.0184 3.08779 37.93 3.08611C37.8416 3.08443 37.7624 3.08699 37.6971 3.09362C35.3207 3.18192 32.551 3.10833 30.056 3.13883C29.7808 3.14328 29.4614 3.128 29.1342 3.09472C26.9953 2.8744 24.9388 2.81186 23.3668 2.91931C23.1755 2.92899 22.9579 2.9294 22.7239 2.92053C21.6492 2.83297 20.6214 2.79806 19.7263 2.81871C18.3236 2.81204 16.9749 2.81745 15.5497 2.79721C14.5672 2.76841 13.7053 2.79918 13.0504 2.88645C13.0295 2.92159 12.5932 2.88372 12.259 2.88005C12.0668 2.79158 11.9002 2.71167 11.702 2.63323C11.5249 2.5362 11.2596 2.43801 10.9241 2.34532C10.5886 2.25263 10.1908 2.16761 9.75758 2.09601C9.01688 2.00427 8.9428 1.87115 9.4611 1.82217C10.797 1.66014 12.4769 1.59382 14.3772 1.62808C15.9657 1.63082 17.5827 1.63709 19.1938 1.6534C20.1335 1.66739 21.1241 1.69847 22.0382 1.70391C22.3467 1.71586 22.6636 1.73348 22.9856 1.75657C23.3807 1.79006 23.7643 1.8083 24.1158 1.81033C25.2443 1.78213 26.5038 1.80669 27.8341 1.88285C28.3214 1.89945 28.7893 1.90505 29.2309 1.89955C30.2755 1.87888 31.408 1.89409 32.5984 1.94479C33.3382 1.97337 34.0556 1.98832 34.7431 1.98947C34.9859 1.99259 35.1836 1.96858 35.4174 1.98677C37.4758 2.17703 38.9334 2.0396 40.7859 2.11277C41.6863 2.13317 42.5465 2.13323 43.3545 2.11294C44.9313 2.11392 46.552 2.13478 48.2102 2.17544C50.403 2.24223 52.4349 2.21905 54.5286 2.24663C54.9419 2.25243 55.341 2.25144 55.723 2.24367C57.581 2.19235 59.599 2.20323 61.728 2.27606C62.2114 2.28658 62.6455 2.27371 63.0033 2.23828C63.3611 2.20284 63.6347 2.14559 63.8071 2.07011C63.88 2.0183 63.8328 1.95102 63.6744 1.88123C63.4116 1.7921 63.1149 1.70478 62.7891 1.62069L50.9385 1.33854C50.4408 1.3238 49.9554 1.31587 49.4848 1.31478C48.1008 1.31232 46.6741 1.29037 45.212 1.24903C43.7672 1.2102 42.387 1.2171 40.9873 1.20541C40.575 1.20149 40.1518 1.19225 39.7194 1.17771C36.7968 1.06266 33.947 0.992381 31.19 0.967392C30.03 0.963846 28.777 0.911041 27.5945 0.893926C26.412 0.876811 24.795 0.870544 23.3923 0.863874L19.0495 0.864898C18.1952 0.861492 17.3636 0.871653 16.5349 0.876796C15.5292 0.509739 15.1827 0.423704 13.8407 0.262891C13.3816 0.203571 12.9147 0.168171 12.4946 0.160836C11.1625 0.189853 9.49099 0.0690632 8.22775 0.0850551C7.46549 0.0771669 6.81868 0.117943 6.35353 0.20321C5.94975 0.270129 5.48803 0.32308 4.97548 0.361264C3.57144 0.0472551 3.4477 -0.156685 4.50386 -0.236047C4.79001 -0.254497 5.18416 -0.24879 5.3908 -0.287865C5.50936 -0.311663 5.67133 -0.325273 5.8638 -0.327625C6.05627 -0.329978 6.27391 -0.321011 6.49965 -0.301422C7.21213 -0.250036 7.87992 -0.23795 8.43603 -0.266381C8.95939 -0.304007 9.60091 -0.302506 10.2988 -0.262014C10.8115 -0.198504 11.2623 -0.288182 11.7057 -0.314092C12.1492 -0.340002 12.5131 -0.386545 13.2058 -0.316925C13.3326 -0.303064 13.4585 -0.294741 13.5739 -0.292599C13.6892 -0.290456 13.791 -0.29455 13.8712 -0.304565C14.6151 -0.349404 15.5029 -0.344692 16.4624 -0.290818C17.9339 -0.237803 19.3146 -0.235816 20.5565 -0.284922C21.2999 -0.327889 21.9338 -0.404087 22.4333 -0.510542C22.5694 -0.546147 22.7716 -0.567497 23.0205 -0.572546C24.27 -0.550334 25.6268 -0.466738 27.0033 -0.327154C27.5219 -0.271224 28.0397 -0.226984 28.5459 -0.195376C29.5862 -0.125159 30.5924 -0.0858121 31.5346 -0.0785008C32.9038 -0.0773416 34.3293 -0.0503253 35.7985 0.00230307C36.7052 0.0316066 37.5788 0.0424223 38.4091 0.0346321C39.2625 0.0309596 40.1736 0.0533128 41.1219 0.101171C42.0649 0.14017 42.896 0.117699 43.5148 0.0364788C43.7186 -0.00728849 43.8828 -0.0592609 44.0042 -0.118469C42.6235 -0.311131 41.1955 -0.409046 40.0077 -0.392494C39.5566 -0.405256 39.182 -0.392372 38.7066 -0.467416L38.6918 -0.442314C38.5972 -0.426027 38.4544 -0.422183 38.2908 -0.431519C38.1272 -0.440856 37.954 -0.462714 37.8044 -0.492936V-0.492936C37.8609 -0.588325 37.9145 -0.678694 37.9532 -0.74396C38.8581 -0.732446 39.7368 -0.733378 40.5847 -0.746764C41.2995 -0.766021 42.2698 -0.597346 42.8884 -0.66084C44.0951 -0.581442 44.8634 -0.691068 45.9455 -0.659436C47.0277 -0.627803 48.2195 -0.523301 49.3016 -0.491669C50.2459 -0.474309 51.1627 -0.470537 52.0471 -0.480366C52.3523 -0.494164 52.7042 -0.490928 53.0811 -0.470854C53.611 -0.433086 54.1039 -0.426757 54.5032 -0.452597C54.9025 -0.478437 55.1921 -0.535404 55.3389 -0.616961C55.2006 -0.693356 55.0145 -0.791863 54.7997 -0.893905C55.1948 -0.977752 55.7947 -1.01306 56.5106 -0.994567L57.5222 -0.998617C57.7902 -0.996403 57.9951 -1.01907 58.0945 -1.06193C58.1939 -1.10479 58.1802 -1.16455 58.0562 -1.22887C56.1381 -1.55266 56.0675 -1.58835 54.6597 -1.38009L52.7905 -1.47687L52.822 -1.47835ZM78.1041 -0.588923L77.9617 -0.60656L78.1041 -0.588923ZM311.04 33.86L311.007 33.9152L311.043 33.855L311.356 33.8938L311.377 33.8586L311.04 33.86ZM265.541 9.65437C265.098 9.59412 264.651 9.53873 264.202 9.48853C264.085 9.48075 263.975 9.47899 263.882 9.48341C263.789 9.48782 263.715 9.49828 263.667 9.5139C263.632 9.57414 263.882 9.61594 264.11 9.64417C264.397 9.68216 264.691 9.7063 264.961 9.71411C265.23 9.72191 265.466 9.7131 265.643 9.68857L265.901 9.66658L265.541 9.65437ZM37.3995 24.3379C37.6911 24.3481 37.9677 24.3497 38.2223 24.3428C39.352 24.2941 40.4337 24.2233 41.5919 24.1781C43.0532 24.0635 44.7325 24.0168 46.5666 24.0398C47.2832 24.0511 47.8885 24.0139 48.3121 23.9327C48.5656 23.8891 48.8928 23.8636 49.2738 23.8578L54.1226 23.7254C54.4224 23.6979 54.6815 23.6594 54.894 23.6108C54.4666 23.5578 54.1817 23.5226 54.0108 23.5014C53.6562 23.4954 53.3513 23.5116 53.1269 23.5482C52.8858 23.6102 52.4782 23.6348 51.9852 23.617C51.4875 23.6022 51.0021 23.5943 50.5315 23.5932C49.6429 23.5963 48.7482 23.6094 47.8565 23.6176C47.5096 23.7902 46.4857 23.7119 45.609 23.6949L44.9317 23.7026C42.7176 23.7921 40.6027 23.9152 38.5972 24.0713C38.2096 24.0977 37.8757 24.1399 37.6057 24.1964C37.504 24.2405 37.4714 24.2955 37.5105 24.3571L37.3681 24.3394L37.3995 24.3379ZM136.269 40.8404C136.806 40.8522 137.365 40.8763 137.938 40.9125C138.38 40.9495 138.811 40.9719 139.214 40.9789C141.472 41.0176 143.825 41.1069 146.242 41.2458C146.558 41.2668 146.862 41.2771 147.141 41.2763L149.119 41.2411C149.743 41.2213 149.754 41.2012 149.301 40.9348C148.924 40.8831 148.543 40.836 148.161 40.7937C147.933 40.7655 147.563 40.7196 147.476 40.7627C146.948 40.8805 145.984 40.8042 145.173 40.7793C142.826 40.7149 140.405 40.6199 138.036 40.542C137.535 40.5229 137.049 40.5133 136.585 40.5132C136.297 40.5092 136.034 40.5167 135.807 40.5354C135.741 40.5373 135.686 40.5429 135.645 40.5518C135.604 40.5606 135.578 40.5726 135.57 40.5868C135.561 40.6011 135.57 40.6173 135.596 40.6344C135.621 40.6515 135.663 40.6691 135.718 40.686C135.912 40.7453 136.136 40.8021 136.383 40.8546L136.269 40.8404ZM153.462 2.18059L155.774 2.14901C156.052 2.14562 156.287 2.11008 156.584 2.12528C158.167 2.17346 159.633 2.16004 160.919 2.08559C161.357 2.05521 161.869 2.04913 162.428 2.0677C164.138 2.12272 165.752 2.12498 167.225 2.07443C168.177 2.06428 169.068 2.0302 169.884 1.9727C169.947 1.95935 169.986 1.94123 169.999 1.91957C170.012 1.89791 169.998 1.87322 169.959 1.84719C169.948 1.83074 169.921 1.81305 169.877 1.79533C169.833 1.77761 169.775 1.76028 169.705 1.74455C169.636 1.72881 169.558 1.71505 169.476 1.70418C169.394 1.69332 169.311 1.68562 169.231 1.68163C168.199 1.6038 167.22 1.57668 166.373 1.60248C165.588 1.63336 164.742 1.64239 163.85 1.62945C162.995 1.62604 162.416 1.72671 161.36 1.6499C160.914 1.6246 160.52 1.63293 160.246 1.67348C159.693 1.74071 158.921 1.74445 158.068 1.68404C157.558 1.65346 157.07 1.64035 156.623 1.6452C155.54 1.6673 154.505 1.71152 153.501 1.75425C153.184 1.76413 152.846 1.7655 152.489 1.75831L147.463 1.67465C146.255 1.64898 145.05 1.6183 143.864 1.6062C142.895 1.57994 141.993 1.58816 141.189 1.63059C140.333 1.67517 139.399 1.69327 138.405 1.68455C136.862 1.70895 135.327 1.71828 133.647 1.715C132.576 1.71702 131.479 1.71049 130.359 1.69039C129.793 1.66452 129.312 1.68559 129.009 1.74954C128.825 1.80218 128.392 1.75929 128.032 1.74707C126.114 1.62932 124.314 1.60142 122.76 1.66531C122.561 1.67572 122.343 1.67949 122.111 1.67656C120.614 1.67436 119.063 1.66009 117.626 1.65993C117.247 1.6649 116.891 1.67852 116.562 1.70063C116.597 1.73669 116.698 1.77578 116.843 1.80979C116.988 1.8438 117.166 1.87012 117.34 1.88328C118.7 1.98404 120.012 2.03727 121.222 2.04073C123.237 2.0279 125.348 2.05676 127.532 2.127C129.227 2.19782 130.772 2.18291 132.053 2.08338C133.054 2.00912 134.357 2.03706 135.737 2.16241C136.327 2.22227 136.901 2.24621 137.378 2.23095C137.838 2.21093 138.365 2.21579 138.929 2.24523C140.119 2.30121 141.263 2.32718 142.339 2.32263C143.391 2.30202 144.372 2.24572 145.452 2.22864C146.533 2.21156 148.178 2.22135 149.51 2.19233C150.843 2.16331 152.16 2.1594 153.462 2.18059ZM57.6536 -0.756002C57.7757 -0.600771 58.2077 -0.504149 58.6725 -0.462756C60.2747 -0.27896 61.8588 -0.200749 63.1586 -0.241247C63.8608 -0.297736 64.7969 -0.275993 65.7829 -0.180284C66.9311 -0.0807947 68.0042 -0.064295 68.8133 -0.133694C69.0115 -0.14582 69.1632 -0.171455 69.255 -0.208316C69.2729 -0.238439 69.3056 -0.293663 69.3116 -0.303704C69.2266 -0.329169 69.1223 -0.352763 69.0069 -0.372668C68.8914 -0.392573 68.7679 -0.408255 68.6457 -0.418505L63.3385 -0.596203L62.4136 -0.635306C60.7244 -0.737751 59.1147 -0.778563 57.6536 -0.756002V-0.756002ZM68.093 1.70097C68.9213 1.95445 68.9242 1.94942 69.3485 2.00737C71.3958 2.24806 73.4416 2.37798 75.2426 2.38169C75.6429 2.38095 75.9826 2.35649 76.233 2.31034C76.3618 2.30409 76.4438 2.28422 76.461 2.25506C76.4783 2.22591 76.4295 2.18983 76.3252 2.15471L75.6665 1.97613C74.4703 1.89882 73.2913 1.83739 72.1366 1.79221C70.7921 1.73887 69.6007 1.73681 68.2069 1.71507L68.093 1.70097ZM136.169 39.718C136.941 40.0669 136.944 40.0619 138.236 40.1519C139.137 40.2156 140.01 40.253 140.831 40.263C141.833 40.274 142.862 40.2936 143.861 40.3096C144.105 40.3207 144.312 40.3115 144.442 40.2837C144.571 40.2559 144.614 40.2116 144.562 40.1593C144.431 40.1025 144.226 40.0476 143.98 40.0034C143.734 39.9593 143.462 39.9285 143.208 39.9161L142.662 39.9078C142 39.8904 141.312 39.8645 140.672 39.8607C140.256 39.8752 139.775 39.864 139.266 39.828C138.757 39.7921 138.233 39.7323 137.737 39.6535L136.169 39.718ZM72.2144 -0.299855C72.4205 -0.239438 72.6535 -0.181571 72.9074 -0.127797C73.8905 0.0212532 74.9309 0.105908 75.8247 0.109571C76.2474 0.118804 76.6339 0.0858378 77.0642 0.133743C77.8359 0.197758 78.5839 0.231858 79.2676 0.234195C79.2676 0.234195 79.4593 0.220217 79.5222 0.217233L79.6532 -0.0036675C79.3295 -0.0548417 78.9919 -0.0966485 78.656 -0.127163C77.5288 -0.185934 76.4212 -0.226114 75.3166 -0.271316C74.2119 -0.316518 73.8267 -0.337282 73.1043 -0.356696C72.7821 -0.346024 72.484 -0.326984 72.2144 -0.299855ZM47.8045 27.1625L49.2796 27.6146C49.757 27.6539 50.2029 27.661 50.5496 27.6349C50.8962 27.6088 51.1246 27.5508 51.2001 27.4699C51.3216 27.432 51.3338 27.3759 51.234 27.3133C51.1343 27.2507 50.9304 27.1865 50.6652 27.1342C50.4099 27.0721 50.1185 27.0165 49.8089 26.9707C49.4994 26.925 49.1784 26.8901 48.8658 26.8682L47.8045 27.1625ZM60.0862 24.9113C59.1213 24.8346 58.1986 24.8033 57.3883 24.8197C56.8778 24.8645 56.1861 24.8502 55.455 24.7796C54.1254 24.6389 52.8437 24.6 51.8804 24.671C51.8804 24.671 51.8446 24.7312 51.6814 24.7487C51.5181 24.7662 52.1657 24.8087 52.3081 24.8264C53.3528 24.8695 54.4035 24.9027 55.3117 24.9181C55.8755 24.9175 56.472 24.9317 57.0907 24.9606C57.942 25.0052 58.7493 25.0197 59.4811 25.0034C59.4811 25.0034 59.7643 24.99 60.0832 24.9163L60.0862 24.9113ZM163.122 1.36144C162.661 1.27629 162.161 1.20708 161.66 1.15902C161.159 1.11095 160.669 1.08528 160.228 1.08391C159.89 1.07947 159.617 1.10195 159.451 1.1478C159.286 1.19366 159.237 1.26027 159.314 1.3371C159.655 1.37944 160.111 1.43589 160.368 1.46764C161.256 1.46454 162.014 1.42371 163.122 1.36144ZM249.385 8.53712C249.015 8.46857 248.608 8.41616 248.209 8.38587C247.811 8.35559 247.437 8.34865 247.131 8.36585C246.974 8.37331 247.081 8.4512 247.054 8.49638C247.037 8.50663 247.037 8.51936 247.055 8.53327C247.073 8.54717 247.107 8.56173 247.156 8.57541C247.204 8.58909 247.264 8.60139 247.329 8.61103C247.394 8.62066 247.461 8.62728 247.525 8.63017C247.926 8.6597 248.305 8.66849 248.627 8.65576C248.95 8.64303 249.206 8.60917 249.373 8.5572L249.385 8.53712ZM255.164 9.51702C255.107 9.47657 254.985 9.43442 254.821 9.39828C254.658 9.36214 254.462 9.33443 254.272 9.32026C253.935 9.31836 253.629 9.32957 253.365 9.35349C253.079 9.37194 253.285 9.48905 253.672 9.55853C253.836 9.58641 254.011 9.60817 254.183 9.62206C254.356 9.63595 254.521 9.64159 254.665 9.63853C254.809 9.63548 254.929 9.62381 255.015 9.60446C255.1 9.58511 255.149 9.55861 255.158 9.52706L255.164 9.51702ZM87.2186 0.130375C86.3563 -0.0141484 85.6926 0.0222096 84.9626 -0.035877C84.2325 -0.0939636 84.0526 -0.100075 84.1504 -0.00712588C84.2482 0.0858233 84.7487 0.0669727 85.0621 0.105785C85.4855 0.157286 85.9114 0.186858 86.2923 0.191201C86.6732 0.195545 86.9939 0.174485 87.2186 0.130375V0.130375ZM266.907 24.584C266.45 24.5515 266.003 24.5286 265.571 24.5156C265.514 24.529 265.479 24.5466 265.467 24.5673C265.454 24.588 265.466 24.6113 265.5 24.636C265.5 24.636 265.792 24.71 265.963 24.7312C266.593 24.8038 266.624 24.6998 266.907 24.584V24.584ZM331.461 38.0491C331.771 38.1466 331.915 38.213 332.162 38.2598C332.276 38.2761 332.393 38.2879 332.506 38.2944C332.619 38.3008 332.723 38.3018 332.813 38.2973C332.921 38.2692 332.947 38.2261 332.884 38.1768C332.884 38.1768 332.569 38.0893 332.449 38.0852C332.107 38.0645 331.776 38.0524 331.461 38.0491V38.0491ZM72.5409 -0.69593C71.8856 -0.777083 71.2588 -0.854714 70.8052 -0.760009C71.8456 -0.65809 71.8457 -0.658083 72.5409 -0.69593ZM83.1534 0.230451C82.4918 0.0568937 82.1035 0.0411437 81.7859 0.0610853C81.7184 0.0661081 81.6737 0.0773029 81.6587 0.0929697C81.6436 0.108636 81.6589 0.127925 81.7023 0.147919C81.7458 0.167912 81.8149 0.18752 81.8994 0.20378C81.9838 0.220039 82.0789 0.232064 82.1703 0.238033C82.5153 0.243029 82.8444 0.240492 83.1534 0.230451V0.230451ZM117.206 0.303842C117.221 0.278739 117.239 0.248617 117.068 0.227447C117.023 0.2167 116.971 0.207458 116.916 0.200645C116.861 0.193832 116.805 0.189693 116.755 0.18864C116.755 0.18864 116.737 0.218764 116.725 0.238846L117.206 0.303842ZM140.853 41.9795L140.473 42.0024L140.644 42.0236L141.095 42.0364L140.853 41.9795ZM274.845 9.12532C274.703 9.10768 274.56 9.09004 274.539 9.12518C274.509 9.13062 274.491 9.13848 274.485 9.14809C274.479 9.15769 274.487 9.16877 274.507 9.1804C274.507 9.1804 274.706 9.20511 274.792 9.21569L274.845 9.12532ZM252.661 9.4064C252.567 9.40438 252.483 9.40674 252.413 9.41332C252.413 9.41332 252.395 9.44344 252.395 9.44344L252.68 9.47873L252.661 9.4064ZM59.3338 16.5837C59.2237 16.5654 59.1071 16.551 58.9919 16.5414L58.8494 16.5237C58.8494 16.5237 59.0025 16.575 59.088 16.5856C59.1734 16.5962 59.2424 16.5832 59.3338 16.5837Z" fill="#DF6951"/>
</g>
</svg>
